<?xml version="1.0" encoding="utf-8"?>
<svg viewBox="0 0 500 500" xmlns="http://www.w3.org/2000/svg">
  <title>Globe</title>
  <path d="M 341.956 350.412 C 348.213 328.498 352.352 303.038 353.929 278.594 C 354.077 275.897 351.91 273.638 349.208 273.672 L 273.981 273.672 C 271.392 273.648 269.272 275.73 269.249 278.319 L 269.249 336.861 C 269.277 339.314 271.185 341.333 273.632 341.498 C 294.832 343.211 315.778 347.255 336.091 353.556 C 338.579 354.304 341.202 352.898 341.956 350.412 Z M 323.779 385.156 C 307.664 380.452 291.15 377.23 274.447 375.533 C 271.718 375.228 269.314 377.329 269.249 380.075 L 269.249 449.14 C 269.36 452.748 273.307 454.907 276.406 453.057 C 293.238 443.243 307.106 426.761 319.64 404.963 C 321.694 401.406 324.817 395.277 326.701 391.529 C 327.949 388.959 326.541 385.889 323.779 385.156 Z M 230.313 375.724 C 213.631 377.311 197.13 380.437 181.023 385.061 C 178.228 385.866 177.053 389.719 178.323 392.249 C 180.218 396.018 182.558 400.835 184.558 404.434 C 198.321 428.783 212.972 444.133 228.217 453.057 C 231.315 454.907 235.262 452.748 235.373 449.14 L 235.373 380.043 C 235.352 377.364 232.962 375.325 230.313 375.724 Z M 230.641 273.672 L 155.414 273.672 C 152.717 273.638 150.552 275.889 150.693 278.584 C 152.26 302.996 156.378 328.509 162.613 350.401 C 163.357 352.923 166.019 354.351 168.531 353.577 C 188.844 347.276 209.791 343.243 230.99 341.551 C 233.442 341.391 235.356 339.37 235.383 336.914 L 235.383 278.33 C 235.367 275.732 233.24 273.642 230.641 273.672 Z M 274.468 137.934 C 291.161 136.37 307.653 133.128 323.695 128.258 C 326.438 127.517 327.838 124.471 326.616 121.906 C 324.722 118.127 322.096 112.717 320.085 109.107 C 307.074 85.817 292.412 69.567 276.427 60.41 C 273.328 58.575 269.395 60.727 269.27 64.327 L 269.27 133.381 C 269.335 136.129 271.737 138.232 274.468 137.934 Z M 273.981 239.795 L 349.208 239.795 C 351.885 239.841 354.046 237.621 353.929 234.947 C 352.362 210.842 348.35 184.344 342.115 162.727 C 341.348 160.226 338.694 158.827 336.197 159.604 C 316.083 165.68 295.133 170.645 273.642 172.307 C 271.207 172.446 269.29 174.441 269.249 176.881 L 269.249 235.222 C 269.296 237.79 271.413 239.837 273.981 239.795 Z M 228.217 60.42 C 211.892 69.493 197.336 86.283 184.315 109.509 C 182.293 113.119 179.879 118.095 177.963 121.864 C 176.751 124.429 178.148 127.468 180.885 128.215 C 196.921 133.175 213.436 136.429 230.154 137.923 C 232.882 138.222 235.282 136.124 235.352 133.381 L 235.352 64.337 C 235.206 60.762 231.312 58.625 228.217 60.42 Z M 230.98 172.318 C 209.489 170.677 188.518 165.712 168.425 159.614 C 165.929 158.837 163.275 160.237 162.507 162.737 C 156.272 184.355 152.26 210.852 150.693 234.957 C 150.577 237.631 152.738 239.851 155.414 239.806 L 230.641 239.806 C 233.217 239.847 235.339 237.788 235.373 235.211 L 235.373 176.891 C 235.333 174.451 233.417 172.457 230.98 172.318 Z" style="fill: rgb(216, 128, 53);"/>
  <path d="M 419.914 89.056 C 291.472 -40.657 70.777 17.316 22.663 193.407 C 0.114 275.936 23.767 364.213 84.56 424.41 C 213.003 554.124 433.698 496.152 481.811 320.061 C 504.361 237.532 480.707 149.255 419.914 89.056 Z M 168.181 441.835 C 163.412 435.138 159.002 428.19 154.97 421.023 C 152.852 417.116 149.846 411.22 147.845 407.123 C 145.905 403.009 140.844 401.458 136.931 403.778 C 132.378 406.329 126.344 409.833 121.972 412.702 C 112.803 405.733 104.436 397.769 97.02 388.957 C 107.275 381.72 118.033 375.224 129.213 369.52 C 131.182 368.462 132.146 367.255 131.521 365.095 C 123.33 336.744 118.327 307.568 116.605 278.107 C 116.499 275.662 114.501 273.724 112.053 273.693 L 51.986 273.693 C 50.93 273.705 50.027 272.937 49.869 271.893 C 49.204 266.869 48.906 261.802 48.979 256.733 C 48.907 251.675 49.211 246.619 49.89 241.606 C 50.048 240.562 50.952 239.794 52.007 239.806 L 112.074 239.806 C 114.498 239.806 116.488 238.408 116.615 235.963 C 118.314 206.625 123.286 177.569 131.436 149.335 C 132.063 147.209 131.09 144.939 129.118 143.925 C 118.178 138.32 107.624 131.989 97.528 124.976 C 104.904 116.166 113.107 108.083 122.025 100.839 C 126.344 103.676 131.976 106.884 136.486 109.425 C 140.684 111.812 146.026 110.151 148.131 105.804 C 150.121 101.707 152.365 97.144 154.546 93.227 C 158.595 85.972 163.027 78.936 167.821 72.15 C 194.217 59.715 223.059 53.335 252.237 53.476 C 282.874 53.476 311.415 60.886 337.489 73.018 C 342.093 79.482 346.335 86.197 350.192 93.132 C 352.934 98.065 355.845 104.11 358.301 109.35 C 359.415 111.706 362.278 112.644 364.568 111.404 C 370.264 108.324 376.436 104.777 381.867 101.21 C 390.811 108.526 399.034 116.678 406.427 125.558 C 396.607 132.368 386.328 138.491 375.663 143.883 C 373.688 144.897 372.718 147.177 373.355 149.303 C 381.639 177.345 386.561 206.273 388.017 235.476 C 388.136 237.909 390.134 239.824 392.569 239.838 L 452.509 239.764 C 453.566 239.752 454.469 240.519 454.626 241.563 C 455.862 251.626 455.862 261.8 454.626 271.861 C 454.478 272.914 453.572 273.693 452.509 273.682 L 392.516 273.682 C 390.067 273.709 388.066 275.649 387.964 278.097 C 386.316 307.246 381.39 336.117 373.281 364.164 C 372.649 366.314 373.619 368.611 375.599 369.658 C 380.893 372.4 386.789 375.459 391.871 378.572 C 396.952 381.684 401.981 385.008 406.829 388.459 C 399.494 397.298 391.341 405.425 382.481 412.734 C 379.898 411.029 376.827 409.092 374.181 407.504 C 372.36 406.445 369.004 404.572 367.141 403.524 C 363.097 401.258 358.799 402.952 356.777 407.123 C 354.755 411.294 351.664 417.275 349.504 421.15 C 345.525 428.273 341.16 435.176 336.43 441.825 C 310.366 454.031 282.874 459.991 252.237 459.991 C 221.6 459.991 194.256 454.031 168.181 441.835 Z" style="fill: rgb(216, 128, 53);"/>
</svg>