<svg width="80" height="80" viewBox="0 0 80 80" fill="none" xmlns="http://www.w3.org/2000/svg">
  <path d="M71.4951 39.7807C72.3198 39.0614 72.4167 37.8092 71.6705 37.0086C70.2371 35.4706 68.6885 34.0358 67.0356 32.7176C61.9972 28.6996 56.1182 25.8684 49.8353 24.4344C43.5525 23.0004 37.0273 23.0004 30.7444 24.4344C24.4616 25.8684 18.5826 28.6996 13.5441 32.7176C11.8256 34.0881 10.2199 35.5847 8.73901 37.1923C7.99759 37.9972 8.1017 39.2487 8.93052 39.9633L28.5694 56.895C29.406 57.6163 30.6605 57.5092 31.4975 56.7885C32.4489 55.9693 33.5127 55.285 34.6593 54.7576C36.4134 53.9508 38.3204 53.5304 40.2511 53.5248C42.1818 53.5193 44.0912 53.9287 45.85 54.7253C46.9995 55.246 48.0672 55.9243 49.0233 56.7379C49.8645 57.4538 51.1196 57.5536 51.952 56.8276L71.4951 39.7807Z" fill="#F2F2F2" stroke="#BDBDBD" stroke-width="4" stroke-linecap="square" />
  <path d="M22.7364 35.3465L21.8071 33.5755L21.8116 33.5731L22.7413 35.3439L22.7364 35.3465Z" stroke="#4F4F4F" stroke-width="4" stroke-linecap="round" stroke-linejoin="round" />
  <path d="M57.9478 33.5756L57.0185 35.3467L57.0136 35.3441L57.9433 33.5733L57.9478 33.5756Z" stroke="#4F4F4F" stroke-width="4" stroke-linecap="round" stroke-linejoin="round" />
  <path d="M49.1794 30.2501L49.1844 30.2514L48.706 32.1933L48.7006 32.192L49.1794 30.2501Z" stroke="#4F4F4F" stroke-width="4" stroke-linecap="round" stroke-linejoin="round" />
  <path d="M39.88 29.1211L39.8749 29.1211L39.8747 31.1211H39.8803L39.88 29.1211Z" stroke="#4F4F4F" stroke-width="4" stroke-linecap="round" stroke-linejoin="round" />
  <path d="M31.0544 32.1919L30.5755 30.25L30.5706 30.2513L31.049 32.1932L31.0544 32.1919Z" stroke="#4F4F4F" stroke-width="4" stroke-linecap="round" stroke-linejoin="round" />
  <path d="M39.8918 37V47" stroke="#EB5757" stroke-width="4" stroke-linecap="round" stroke-linejoin="round" />
</svg>